<svg width="169" height="167" viewBox="0 0 169 167" fill="none" xmlns="http://www.w3.org/2000/svg">
<path d="M129.096 12.0833C142.897 12.0833 154.164 22.9063 154.882 36.5319L154.917 37.905V127.095C154.917 140.896 144.094 152.163 130.469 152.881L129.096 152.917H39.9058C33.2949 152.917 26.9357 150.382 22.1383 145.833C17.3409 141.285 14.4707 135.069 14.1192 128.468L14.084 127.095V37.905C14.084 24.1034 24.907 12.8367 38.5327 12.1185L39.9058 12.0833H129.096ZM109.146 96.5833C106.345 96.5833 103.659 97.6961 101.678 99.6769C99.6968 101.658 98.584 104.344 98.584 107.146C98.584 109.947 99.6968 112.634 101.678 114.615C103.659 116.595 106.345 117.708 109.146 117.708C111.948 117.708 114.634 116.595 116.615 114.615C118.596 112.634 119.709 109.947 119.709 107.146C119.709 104.344 118.596 101.658 116.615 99.6769C114.634 97.6961 111.948 96.5833 109.146 96.5833ZM59.8548 96.5833C57.0535 96.5833 54.3669 97.6961 52.386 99.6769C50.4051 101.658 49.2923 104.344 49.2923 107.146C49.2923 109.947 50.4051 112.634 52.386 114.615C54.3669 116.595 57.0535 117.708 59.8548 117.708C62.6562 117.708 65.3428 116.595 67.3236 114.615C69.3045 112.634 70.4173 109.947 70.4173 107.146C70.4173 104.344 69.3045 101.658 67.3236 99.6769C65.3428 97.6961 62.6562 96.5833 59.8548 96.5833ZM59.8548 47.2916C57.0535 47.2916 54.3669 48.4044 52.386 50.3853C50.4051 52.3661 49.2923 55.0527 49.2923 57.8541C49.2923 60.6554 50.4051 63.342 52.386 65.3229C54.3669 67.3038 57.0535 68.4166 59.8548 68.4166C62.6562 68.4166 65.3428 67.3038 67.3236 65.3229C69.3045 63.342 70.4173 60.6554 70.4173 57.8541C70.4173 55.0527 69.3045 52.3661 67.3236 50.3853C65.3428 48.4044 62.6562 47.2916 59.8548 47.2916ZM109.146 47.2916C106.345 47.2916 103.659 48.4044 101.678 50.3853C99.6968 52.3661 98.584 55.0527 98.584 57.8541C98.584 60.6554 99.6968 63.342 101.678 65.3229C103.659 67.3038 106.345 68.4166 109.146 68.4166C111.948 68.4166 114.634 67.3038 116.615 65.3229C118.596 63.342 119.709 60.6554 119.709 57.8541C119.709 55.0527 118.596 52.3661 116.615 50.3853C114.634 48.4044 111.948 47.2916 109.146 47.2916Z" fill="#252424"/>
</svg>
